<?xml version="1.0" standalone="no"?>
<!DOCTYPE svg PUBLIC "-//W3C//DTD SVG 20010904//EN"
 "http://www.w3.org/TR/2001/REC-SVG-20010904/DTD/svg10.dtd">
<svg version="1.0" xmlns="http://www.w3.org/2000/svg"
 width="662.000000pt" height="662.000000pt" viewBox="0 0 662.000000 662.000000"
 preserveAspectRatio="xMidYMid meet">
<metadata>
Created by potrace 1.14, written by Peter Selinger 2001-2017
</metadata>
<g transform="translate(0.000000,662.000000) scale(0.100000,-0.100000)"
fill="#000000" stroke="none">
<path d="M3587 5484 c-1 -2 -25 -6 -52 -9 -79 -10 -133 -20 -225 -41 -14 -3
-32 -7 -40 -8 -40 -6 -272 -98 -355 -141 -166 -86 -279 -170 -422 -313 -100
-100 -273 -315 -273 -340 0 -5 -7 -15 -15 -22 -8 -7 -22 -26 -31 -44 -69 -134
-104 -208 -104 -221 0 -13 -20 -15 -122 -16 -68 -1 -134 -2 -148 -4 -143 -15
-138 -14 -270 -48 -264 -68 -514 -213 -711 -410 -46 -47 -91 -93 -99 -104 -8
-10 -32 -39 -52 -65 -21 -25 -38 -49 -38 -51 0 -3 -16 -29 -36 -58 -33 -48
-143 -266 -148 -293 -2 -6 -14 -49 -29 -96 -14 -47 -29 -101 -32 -120 -3 -19
-9 -44 -12 -55 -3 -11 -8 -36 -11 -55 -7 -51 -7 -408 0 -455 11 -78 30 -161
56 -240 14 -44 25 -86 25 -92 0 -7 4 -13 9 -13 4 0 8 -7 8 -15 0 -8 18 -52 40
-97 62 -125 109 -199 203 -322 49 -65 167 -180 275 -267 81 -67 268 -170 392
-217 54 -20 93 -34 97 -33 2 0 21 -6 43 -14 22 -8 40 -12 40 -10 0 3 12 0 27
-6 15 -6 82 -18 148 -28 113 -17 222 -18 1775 -17 910 2 1666 5 1680 8 14 4
48 10 75 14 28 4 55 8 60 9 295 65 514 192 680 395 176 215 269 474 269 750 0
78 -12 218 -19 230 -2 3 -6 19 -9 33 -23 131 -130 357 -219 465 -93 113 -241
243 -327 287 -19 10 -37 21 -40 25 -7 9 -166 76 -218 91 l-44 13 8 55 c9 68
10 465 1 541 -14 117 -52 289 -76 345 -5 11 -15 36 -22 55 -30 83 -128 270
-141 270 -5 0 -8 5 -8 10 0 13 -98 140 -149 194 -49 53 -146 143 -194 181 -21
17 -44 36 -52 43 -7 6 -16 12 -18 12 -2 0 -34 20 -71 45 -85 56 -248 136 -351
170 -44 15 -87 29 -95 32 -36 14 -168 40 -285 58 -76 11 -339 18 -348 9z"/>
</g>
</svg>
