  <svg viewBox="0 0 32 32" fill="none" width="100%" height="100%" xmlns="http://www.w3.org/2000/svg">
    <g>
      <path
        fillRule="evenodd"
        d="M26.7797 18.212C26.2657 18.728 25.3697 18.494 25.0657 17.832C25.0052 17.7023 24.9735 17.5611 24.9727 17.418V6C24.9727 5.33696 24.7093 4.70107 24.2405 4.23223C23.7717 3.76339 23.1358 3.5 22.4727 3.5C21.8097 3.5 21.1738 3.76339 20.705 4.23223C20.2361 4.70107 19.9727 5.33696 19.9727 6V11.778C19.9727 12.275 19.4637 12.613 18.9897 12.463C18.6897 12.368 18.4727 12.095 18.4727 11.78V2.5C18.4727 1.83696 18.2093 1.20107 17.7405 0.732233C17.2717 0.263392 16.6358 0 15.9727 0C15.3097 0 14.6738 0.263392 14.205 0.732233C13.7361 1.20107 13.4727 1.83696 13.4727 2.5V11.781C13.4698 11.9346 13.4183 12.0834 13.3256 12.2059C13.2329 12.3284 13.1038 12.4184 12.9567 12.463C12.4827 12.613 11.9727 12.275 11.9727 11.778V6C11.9727 5.33696 11.7093 4.70107 11.2405 4.23223C10.7717 3.76339 10.1358 3.5 9.47274 3.5C8.8097 3.5 8.17381 3.76339 7.70497 4.23223C7.23613 4.70107 6.97274 5.33696 6.97274 6V17.422C6.97244 17.5623 6.94173 17.7008 6.88274 17.828C6.58474 18.475 5.70974 18.702 5.20574 18.198L4.27574 17.268C4.04399 17.0342 3.76834 16.8484 3.46461 16.7214C3.16088 16.5943 2.83505 16.5285 2.50583 16.5278C2.1766 16.527 1.85047 16.5913 1.54615 16.7169C1.24183 16.8425 0.965314 17.027 0.732483 17.2597C0.499653 17.4925 0.31509 17.769 0.189391 18.0733C0.0636913 18.3775 -0.000668747 18.7037 5.2392e-06 19.0329C0.000679226 19.3621 0.066374 19.688 0.193318 19.9917C0.320262 20.2955 0.505955 20.5712 0.739737 20.803L8.08974 28.153C9.02409 29.3521 10.2199 30.322 11.5861 30.9887C12.9522 31.6554 14.4526 32.0013 15.9727 32C17.4309 32.0016 18.8717 31.6835 20.1937 31.0683C21.5158 30.4531 22.6869 29.5556 23.6247 28.439L31.2607 20.803C31.7261 20.3334 31.9865 19.6986 31.985 19.0374C31.9835 18.3763 31.7201 17.7427 31.2525 17.2752C30.7849 16.8078 30.1513 16.5446 29.4901 16.5432C28.829 16.5419 28.1942 16.8025 27.7247 17.268L26.7797 18.212ZM15.9727 28C20.3917 28 23.9727 23 23.9727 23C23.9727 23 20.3917 18 15.9727 18C11.5547 18 7.97273 23 7.97273 23C7.97273 23 11.5547 28 15.9727 28Z"
        fill="currentColor"
      />
      <path
        d="M18.7387 23C18.7457 23.3676 18.6794 23.7329 18.5435 24.0745C18.4077 24.4162 18.2051 24.7273 17.9476 24.9898C17.6901 25.2522 17.3829 25.4607 17.0439 25.603C16.7049 25.7453 16.3409 25.8186 15.9732 25.8186C15.6056 25.8186 15.2416 25.7453 14.9026 25.603C14.5636 25.4607 14.2564 25.2522 13.9989 24.9898C13.7414 24.7273 13.5388 24.4162 13.403 24.0745C13.2671 23.7329 13.2007 23.3676 13.2077 23C13.2215 22.2757 13.5189 21.5856 14.0361 21.0782C14.5532 20.5708 15.2488 20.2866 15.9732 20.2866C16.6977 20.2866 17.3933 20.5708 17.9104 21.0782C18.4275 21.5856 18.725 22.2757 18.7387 23Z"
        fill="currentColor"
      />
    </g>
  </svg>