<svg viewBox="0 0 148 148" fill="none" xmlns="http://www.w3.org/2000/svg">
<path d="M113.337 118.002H44.941C27.8527 118.002 14 104.149 14 87.0611C14 69.9728 27.8527 56.12 44.941 56.12C47.1863 56.12 49.3758 56.3593 51.4853 56.8135C52.2759 49.6771 59.5069 40.4711 65.3672 36.3787C81.0843 25.4026 102.513 28.9446 113.229 44.2899C119.819 53.7262 118.621 64.9877 117.375 74.8945C122.475 75.1982 127.488 77.2982 131.385 81.1952C139.838 89.6476 139.838 103.352 131.385 111.804C126.598 116.591 119.851 118.032 113.88 118.032" stroke="currentColor" stroke-width="4.13793" stroke-linecap="round" stroke-linejoin="round"/>
<path d="M68.931 67.519C64.5741 62.1767 58.4674 58.317 51.4853 56.8135M100.776 81.1952C105.332 76.6394 111.413 74.5393 117.376 74.8945" stroke="currentColor" stroke-width="4.13793" stroke-linecap="round" stroke-linejoin="round"/>
<path d="M56.866 137.092C56.7047 138.537 56.206 139.809 55.37 140.909C54.5413 142.002 53.4377 142.852 52.059 143.461C50.6877 144.062 49.1367 144.363 47.406 144.363C45.5067 144.363 43.831 144.004 42.379 143.285C40.927 142.566 39.8013 141.558 39.002 140.26C38.21 138.955 37.814 137.451 37.814 135.75C37.814 134.049 38.21 132.549 39.002 131.251C39.8013 129.946 40.927 128.934 42.379 128.215C43.831 127.496 45.5067 127.137 47.406 127.137C49.1367 127.137 50.6877 127.441 52.059 128.05C53.4377 128.651 54.5413 129.502 55.37 130.602C56.206 131.695 56.7047 132.963 56.866 134.408H52.279C52.1397 133.719 51.8537 133.125 51.421 132.626C50.9957 132.127 50.442 131.746 49.76 131.482C49.078 131.218 48.2897 131.086 47.395 131.086C46.3757 131.086 45.492 131.273 44.744 131.647C43.996 132.021 43.424 132.56 43.028 133.264C42.632 133.968 42.434 134.797 42.434 135.75C42.434 136.703 42.632 137.532 43.028 138.236C43.424 138.94 43.996 139.479 44.744 139.853C45.492 140.227 46.3757 140.414 47.395 140.414C48.3043 140.414 49.0963 140.289 49.771 140.04C50.453 139.783 51.0067 139.409 51.432 138.918C51.8573 138.419 52.1397 137.811 52.279 137.092H56.866ZM58.7391 127.06H63.2381V144H58.7391V127.06ZM73.1905 144.363C71.5918 144.363 70.1838 144.088 68.9665 143.538C67.7565 142.981 66.8142 142.2 66.1395 141.195C65.4722 140.19 65.1385 139.032 65.1385 137.719C65.1385 136.406 65.4722 135.248 66.1395 134.243C66.8142 133.231 67.7565 132.45 68.9665 131.9C70.1838 131.343 71.5918 131.064 73.1905 131.064C74.7818 131.064 76.1825 131.343 77.3925 131.9C78.6098 132.45 79.5558 133.231 80.2305 134.243C80.9052 135.248 81.2425 136.406 81.2425 137.719C81.2425 139.032 80.9052 140.19 80.2305 141.195C79.5558 142.2 78.6098 142.981 77.3925 143.538C76.1825 144.088 74.7818 144.363 73.1905 144.363ZM73.1905 141.019C73.9165 141.019 74.5398 140.887 75.0605 140.623C75.5885 140.359 75.9918 139.981 76.2705 139.49C76.5565 138.991 76.6995 138.401 76.6995 137.719C76.6995 137.037 76.5565 136.45 76.2705 135.959C75.9918 135.46 75.5885 135.079 75.0605 134.815C74.5398 134.544 73.9165 134.408 73.1905 134.408C72.4572 134.408 71.8265 134.544 71.2985 134.815C70.7778 135.079 70.3745 135.46 70.0885 135.959C69.8098 136.45 69.6705 137.037 69.6705 137.719C69.6705 138.401 69.8098 138.991 70.0885 139.49C70.3745 139.981 70.7778 140.359 71.2985 140.623C71.8265 140.887 72.4572 141.019 73.1905 141.019ZM88.5463 144.352C87.3803 144.352 86.3793 144.114 85.5433 143.637C84.7147 143.153 84.0803 142.471 83.6403 141.591C83.2003 140.704 82.9803 139.659 82.9803 138.456V131.427H87.4793V137.807C87.4793 138.738 87.703 139.453 88.1503 139.952C88.605 140.443 89.254 140.689 90.0973 140.689C90.7207 140.689 91.2487 140.564 91.6813 140.315C92.1213 140.058 92.455 139.692 92.6823 139.215C92.9097 138.731 93.0233 138.152 93.0233 137.477L94.4093 138.192C94.248 139.497 93.8923 140.612 93.3423 141.536C92.7923 142.46 92.103 143.16 91.2743 143.637C90.4457 144.114 89.5363 144.352 88.5463 144.352ZM93.8483 144L93.0233 138.973V131.427H97.5223V139.666L98.3363 144H93.8483ZM111.6 144L111.028 139.281L111.798 137.752L111.039 135.816L112.095 127.06H116.759L115.461 137.378L116.253 144H111.6ZM112.568 137.719C112.363 139.046 111.956 140.212 111.347 141.217C110.739 142.214 109.965 142.988 109.026 143.538C108.088 144.088 107.035 144.363 105.869 144.363C104.652 144.363 103.57 144.088 102.624 143.538C101.686 142.981 100.956 142.2 100.435 141.195C99.9148 140.19 99.6545 139.032 99.6545 137.719C99.6545 136.406 99.9148 135.248 100.435 134.243C100.956 133.231 101.686 132.45 102.624 131.9C103.57 131.343 104.652 131.064 105.869 131.064C107.035 131.064 108.088 131.339 109.026 131.889C109.972 132.432 110.75 133.205 111.358 134.21C111.974 135.207 112.378 136.377 112.568 137.719ZM104.197 137.719C104.197 138.335 104.326 138.889 104.582 139.38C104.839 139.864 105.195 140.242 105.649 140.513C106.111 140.784 106.636 140.92 107.222 140.92C107.816 140.92 108.385 140.784 108.927 140.513C109.477 140.242 109.958 139.864 110.368 139.38C110.786 138.896 111.098 138.342 111.303 137.719C111.098 137.103 110.786 136.553 110.368 136.069C109.958 135.578 109.477 135.196 108.927 134.925C108.385 134.646 107.816 134.507 107.222 134.507C106.636 134.507 106.111 134.646 105.649 134.925C105.195 135.196 104.839 135.578 104.582 136.069C104.326 136.553 104.197 137.103 104.197 137.719Z" fill="currentColor"/>
</svg>
