<svg viewBox="0 0 148 148" fill="none" xmlns="http://www.w3.org/2000/svg">
<path d="M113.337 118.002H44.941C27.8527 118.002 14 104.149 14 87.0611C14 69.9728 27.8527 56.12 44.941 56.12C47.1863 56.12 49.3758 56.3593 51.4853 56.8135C52.2759 49.6771 59.5069 40.4711 65.3672 36.3787C81.0843 25.4026 102.513 28.9446 113.229 44.2899C119.819 53.7262 118.621 64.9877 117.375 74.8945C122.475 75.1982 127.488 77.2982 131.385 81.1952C139.838 89.6476 139.838 103.352 131.385 111.804C126.598 116.591 119.851 118.032 113.88 118.032" stroke="currentColor" stroke-width="4.13793" stroke-linecap="round" stroke-linejoin="round"/>
<path d="M68.931 67.519C64.5741 62.1767 58.4674 58.317 51.4853 56.8135M100.776 81.1952C105.332 76.6394 111.413 74.5393 117.376 74.8945" stroke="currentColor" stroke-width="4.13793" stroke-linecap="round" stroke-linejoin="round"/>
</svg>
